<svg width="40" height="40" viewBox="0 0 40 40" fill="none" xmlns="http://www.w3.org/2000/svg">
<rect x="0.5" y="0.5" width="39" height="39" fill="white"/>
<rect x="0.5" y="0.5" width="39" height="39" stroke="black"/>
<g clip-path="url(#clip0_216_4345)">
<path fill-rule="evenodd" clip-rule="evenodd" d="M16.1972 14.0002C16.0238 13.9964 15.8524 14.0388 15.7008 14.1231C15.5493 14.2074 15.4229 14.3305 15.3349 14.4798C15.2469 14.6291 15.2004 14.7992 15.2002 14.9724L15.2002 25.0277C15.2004 25.2009 15.2469 25.3709 15.3349 25.5202C15.4229 25.6695 15.5493 25.7926 15.7008 25.8769C15.8524 25.9612 16.0238 26.0036 16.1972 25.9998C16.3702 25.9959 16.5392 25.9462 16.6866 25.8558L16.6876 25.8552L24.3287 20.8302C24.4716 20.7448 24.5901 20.6241 24.6727 20.4796C24.7563 20.3335 24.8002 20.1682 24.8002 20C24.8002 19.8318 24.7563 19.6665 24.6727 19.5204C24.5901 19.3759 24.4716 19.2552 24.3287 19.1698L16.6892 14.1458L16.6867 14.1443C16.5392 14.0538 16.3703 14.0041 16.1972 14.0002Z" fill="black"/>
</g>
<defs>
<clipPath id="clip0_216_4345">
<rect width="12" height="12" fill="white" transform="translate(14 14)"/>
</clipPath>
</defs>
</svg>
